<svg width="31" height="28" viewBox="0 0 31 28" fill="none" xmlns="http://www.w3.org/2000/svg">
<path d="M27.3342 0H2.81957C1.26444 0 0 1.17403 0 2.61808V25.3817C0 26.826 1.26433 28 2.81957 28H27.3342C28.8894 28 30.1538 26.826 30.1538 25.3817V2.61808C30.1538 1.17403 28.8895 0 27.3342 0ZM9.94693 21.6207C8.884 21.6103 7.80976 21.6103 6.73564 21.6207C6.53424 21.6207 6.4783 21.5688 6.4783 21.3714V10.8363C6.4783 10.6389 6.54543 10.587 6.74683 10.587C7.80976 10.5974 8.88388 10.5974 9.94693 10.587C10.1594 10.587 10.2155 10.6494 10.2042 10.8363V16.1143C10.2042 17.8701 10.2042 19.6259 10.2155 21.3817C10.2155 21.5688 10.1483 21.6207 9.94693 21.6207ZM8.34682 9.17392C7.16081 9.18431 6.18739 8.25974 6.18739 7.16873C6.19858 6.11938 7.06011 5.17392 8.33574 5.16353C9.54402 5.15314 10.5064 6.00509 10.5064 7.16873C10.5064 8.31169 9.5664 9.16364 8.34682 9.17392ZM23.6307 21.6207H20.4866C20.2293 21.6207 20.2182 21.6103 20.2182 21.3609V16.0207C20.2182 15.5221 20.2069 15.0233 20.0503 14.535C19.8042 13.7766 19.2782 13.4129 18.4167 13.3921C17.8125 13.3817 17.2419 13.4856 16.8167 13.922C16.4699 14.2648 16.3244 14.6804 16.2573 15.1377C16.2125 15.5428 16.179 15.9583 16.179 16.374C16.1679 18.0466 16.1679 19.7194 16.179 21.3817C16.179 21.5688 16.123 21.6207 15.9328 21.6207C14.8587 21.6103 13.7735 21.6103 12.6993 21.6207C12.5092 21.6207 12.442 21.5688 12.442 21.3817C12.4532 17.8701 12.4532 14.3479 12.442 10.8259C12.442 10.6389 12.5203 10.587 12.6993 10.587C13.7286 10.5974 14.7581 10.5974 15.7874 10.587C15.9888 10.587 16.0559 10.6597 16.0447 10.8363C16.0335 11.2207 16.0447 11.6155 16.0447 11.9999C16.6265 11.1999 17.4098 10.6908 18.3944 10.4623C19.5356 10.2026 20.6657 10.2856 21.7399 10.7221C22.7803 11.1376 23.3398 11.9272 23.6308 12.9038C23.8321 13.5376 23.9217 14.1921 23.9329 14.857C23.944 17.0077 23.9552 19.1584 23.9663 21.3194C23.9663 21.6207 23.9663 21.6207 23.6307 21.6207Z" fill="black"/>
</svg>
